<?xml version="1.0" encoding="UTF-8" standalone="no"?>
<!-- Created with Inkscape (http://www.inkscape.org/) -->

<svg
   width="210mm"
   height="297mm"
   viewBox="0 0 210 297"
   version="1.1"
   id="svg1"
   inkscape:version="1.3.2 (091e20e, 2023-11-25, custom)"
   sodipodi:docname="drawing.svg"
   xmlns:inkscape="http://www.inkscape.org/namespaces/inkscape"
   xmlns:sodipodi="http://sodipodi.sourceforge.net/DTD/sodipodi-0.dtd"
   xmlns="http://www.w3.org/2000/svg"
   xmlns:svg="http://www.w3.org/2000/svg">
  <sodipodi:namedview
     id="namedview1"
     pagecolor="#ffffff"
     bordercolor="#000000"
     borderopacity="0.25"
     inkscape:showpageshadow="2"
     inkscape:pageopacity="0.0"
     inkscape:pagecheckerboard="0"
     inkscape:deskcolor="#d1d1d1"
     inkscape:document-units="mm"
     inkscape:zoom="0.34609638"
     inkscape:cx="4557.9789"
     inkscape:cy="-1018.5024"
     inkscape:window-width="1920"
     inkscape:window-height="1009"
     inkscape:window-x="-8"
     inkscape:window-y="-8"
     inkscape:window-maximized="1"
     inkscape:current-layer="layer1" />
  <defs
     id="defs1">
    <rect
       x="4602.7641"
       y="-676.11224"
       width="1317.552"
       height="456.52023"
       id="rect151" />
    <rect
       x="4334.0528"
       y="-684.78034"
       width="1095.0707"
       height="323.60928"
       id="rect150" />
    <rect
       x="3730.1748"
       y="-667.44413"
       width="2141.0221"
       height="661.66539"
       id="rect149" />
    <linearGradient
       id="swatch133"
       inkscape:swatch="solid">
      <stop
         style="stop-color:#a4e506;stop-opacity:1;"
         offset="0"
         id="stop134" />
    </linearGradient>
    <rect
       x="4602.7641"
       y="-676.11224"
       width="1317.552"
       height="456.52023"
       id="rect152" />
  </defs>
  <g
     inkscape:label="Layer 1"
     inkscape:groupmode="layer"
     id="layer1">
    <rect
       style="fill:#000000;stroke-width:0.264583"
       id="rect3"
       width="138.38544"
       height="202.17247"
       x="383.80334"
       y="84.869194"
       ry="1.1533117"
       inkscape:export-filename="Fizz Up\Assets\Sprites\Sprites\CanFR1.png"
       inkscape:export-xdpi="96"
       inkscape:export-ydpi="96" />
    <rect
       style="fill:#000000;stroke-width:0.279252"
       id="rect5"
       width="27.938372"
       height="29.116299"
       x="-408.24991"
       y="-333.87189"
       ry="1.267758"
       transform="matrix(-0.86858811,0.49553475,-0.50307696,-0.86424162,0,0)" />
    <rect
       style="fill:#000000;stroke-width:0.278252"
       id="rect5-9"
       width="27.788519"
       height="29.064003"
       x="375.03369"
       y="116.40646"
       ry="1.265481"
       transform="matrix(0.86705813,0.49820699,0.50039596,-0.86579667,0,0)" />
    <rect
       style="fill:#000000;stroke-width:0.251538"
       id="rect6"
       width="110.08494"
       height="26.169817"
       x="397.93436"
       y="61.363003"
       ry="1.0966787" />
    <rect
       style="fill:#000000;stroke-width:0.292036"
       id="rect7"
       width="138.4592"
       height="28.082188"
       x="383.70923"
       y="274.0817"
       ry="9.8833208" />
    <rect
       style="fill:#666666;stroke-width:0.256709"
       id="rect3-0"
       width="133.29987"
       height="197.57898"
       x="386.48459"
       y="86.846382"
       ry="1.1271077" />
    <rect
       style="fill:#666666;stroke-width:0.270937"
       id="rect5-3"
       width="27.008425"
       height="28.351936"
       x="-407.27713"
       y="-336.89606"
       ry="1.2344768"
       transform="matrix(-0.86547604,0.50095032,-0.49765364,-0.86737584,0,0)" />
    <rect
       style="fill:#666666;stroke-width:0.269977"
       id="rect5-9-0"
       width="26.864601"
       height="28.302107"
       x="379.08362"
       y="118.43504"
       ry="1.2323072"
       transform="matrix(0.86391812,0.50363229,0.49498244,-0.86890298,0,0)" />
    <rect
       style="fill:#666666;stroke-width:0.244052"
       id="rect6-1"
       width="106.03941"
       height="25.575222"
       x="400.09631"
       y="63.87426"
       ry="1.0717615" />
    <rect
       style="fill:#666666;stroke-width:0.283345"
       id="rect7-3"
       width="133.37091"
       height="27.444143"
       x="386.39392"
       y="271.75986"
       ry="9.6587658" />
    <rect
       style="fill:#000000;stroke-width:0.171546"
       id="rect8"
       width="118.13914"
       height="7.1075144"
       x="393.13882"
       y="54.815266"
       ry="3.1043954" />
    <rect
       style="fill:#4d4d4d;stroke-width:0.138995"
       id="rect8-3"
       width="114.50786"
       height="4.8140783"
       x="395.00674"
       y="56.186443"
       ry="2.1026764" />
    <ellipse
       style="fill:#000000;stroke-width:0.264583"
       id="path9"
       cx="425.05017"
       cy="126.71236"
       rx="30.196911"
       ry="28.476835" />
    <ellipse
       style="fill:#ffffff;stroke-width:0.224167"
       id="path9-5"
       cx="424.52902"
       cy="125.3947"
       rx="25.036678"
       ry="24.654442" />
    <ellipse
       style="fill:#000000;stroke-width:0.133639"
       id="path9-5-3"
       cx="426.02881"
       cy="126.78526"
       rx="14.907334"
       ry="14.716218" />
    <ellipse
       style="fill:#000000;stroke-width:0.264583"
       id="ellipse9"
       cx="483.15054"
       cy="126.71236"
       rx="30.196911"
       ry="28.476835" />
    <ellipse
       style="fill:#ffffff;stroke-width:0.224167"
       id="ellipse10"
       cx="482.54465"
       cy="126.19759"
       rx="25.036678"
       ry="24.654442" />
    <ellipse
       style="fill:#000000;stroke-width:0.133639"
       id="ellipse11"
       cx="484.08749"
       cy="129.1396"
       rx="14.907334"
       ry="14.716218" />
    <ellipse
       style="fill:#ffffff;stroke-width:0.0377975"
       id="ellipse12"
       cx="500.83713"
       cy="-22.766104"
       rx="3.7811711"
       ry="4.64118"
       transform="matrix(0.95349395,0.30141215,-0.20784653,0.97816145,0,0)" />
    <ellipse
       style="fill:#ffffff;stroke-width:0.0350866"
       id="ellipse13"
       cx="426.12488"
       cy="126.5693"
       rx="3.4401529"
       ry="4.3957548" />
    <rect
       style="fill:#000000;stroke-width:0.234421"
       id="rect13"
       width="37.942333"
       height="4.8728232"
       x="323.71735"
       y="328.28528"
       ry="2.4364116"
       transform="matrix(0.79404572,-0.60785803,0.41077142,0.91173836,0,0)" />
    <rect
       style="fill:#000000;stroke-width:0.208431"
       id="rect14"
       width="36.099407"
       height="4.0489092"
       x="512.63281"
       y="205.85126"
       ry="2.0244546"
       transform="matrix(0.97432195,-0.22515936,-0.17099928,0.98527115,0,0)" />
    <ellipse
       style="fill:#4d4d4d;stroke-width:0.196268"
       id="path14"
       cx="430.76581"
       cy="189.72874"
       rx="50.035229"
       ry="8.7001352"
       transform="matrix(0.99987983,0.01550219,0.1177573,0.99304241,0,0)" />
    <ellipse
       style="fill:#000000;stroke-width:0.183698"
       id="path14-2"
       cx="431.21115"
       cy="190.12837"
       rx="47.047905"
       ry="8.1054697"
       transform="matrix(0.99989418,0.01454766,0.11153233,0.99376081,0,0)" />
    <rect
       style="fill:#000000;stroke-width:0.264583"
       id="rect3-5"
       width="138.38544"
       height="202.17247"
       x="740.62512"
       y="80.315598"
       ry="1.1533117"
       inkscape:export-filename="Fizz Up\Assets\Sprites\Sprites\CanExpload.png"
       inkscape:export-xdpi="96"
       inkscape:export-ydpi="96" />
    <rect
       style="fill:#000000;stroke-width:0.279252"
       id="rect5-30"
       width="27.938372"
       height="29.116299"
       x="-718.9328"
       y="-506.74084"
       ry="1.267758"
       transform="matrix(-0.86858811,0.49553475,-0.50307696,-0.86424162,0,0)" />
    <rect
       style="fill:#000000;stroke-width:0.278252"
       id="rect5-9-5"
       width="27.788519"
       height="29.064003"
       x="681.69122"
       y="298.1264"
       ry="1.265481"
       transform="matrix(0.86705813,0.49820699,0.50039596,-0.86579667,0,0)" />
    <rect
       style="fill:#000000;stroke-width:0.251538"
       id="rect6-9"
       width="110.08494"
       height="26.169817"
       x="754.75616"
       y="56.809399"
       ry="1.0966787" />
    <rect
       style="fill:#000000;stroke-width:0.292036"
       id="rect7-39"
       width="138.4592"
       height="28.082188"
       x="740.53101"
       y="269.52811"
       ry="9.8833208" />
    <rect
       style="fill:#666666;stroke-width:0.256709"
       id="rect3-0-1"
       width="133.29987"
       height="197.57898"
       x="743.3064"
       y="82.292786"
       ry="1.1271077" />
    <rect
       style="fill:#666666;stroke-width:0.270937"
       id="rect5-3-6"
       width="27.008425"
       height="28.351936"
       x="-719.04413"
       y="-511.7063"
       ry="1.2344768"
       transform="matrix(-0.86547604,0.50095032,-0.49765364,-0.86737584,0,0)" />
    <rect
       style="fill:#666666;stroke-width:0.269977"
       id="rect5-9-0-6"
       width="26.864601"
       height="28.302107"
       x="686.88855"
       y="302.08514"
       ry="1.2323072"
       transform="matrix(0.86391812,0.50363229,0.49498244,-0.86890298,0,0)" />
    <rect
       style="fill:#666666;stroke-width:0.244052"
       id="rect6-1-7"
       width="106.03941"
       height="25.575222"
       x="756.91809"
       y="59.32066"
       ry="1.0717615" />
    <rect
       style="fill:#666666;stroke-width:0.283345"
       id="rect7-3-2"
       width="133.37091"
       height="27.444143"
       x="743.2157"
       y="267.20627"
       ry="9.6587658" />
    <rect
       style="fill:#000000;stroke-width:0.171546"
       id="rect8-6"
       width="118.13914"
       height="7.1075144"
       x="749.96063"
       y="50.261662"
       ry="3.1043954" />
    <rect
       style="fill:#4d4d4d;stroke-width:0.138995"
       id="rect8-3-6"
       width="114.50786"
       height="4.8140783"
       x="751.82855"
       y="51.632839"
       ry="2.1026764" />
    <ellipse
       style="fill:#000000;stroke-width:0.264583"
       id="path9-56"
       cx="781.87195"
       cy="122.15876"
       rx="30.196911"
       ry="28.476835" />
    <ellipse
       style="fill:#ffffff;stroke-width:0.224167"
       id="path9-5-1"
       cx="783.2428"
       cy="120.03025"
       rx="25.036678"
       ry="24.654442" />
    <ellipse
       style="fill:#000000;stroke-width:0.133639"
       id="path9-5-3-3"
       cx="789.06714"
       cy="113.31229"
       rx="14.907334"
       ry="14.716218" />
    <ellipse
       style="fill:#000000;stroke-width:0.264583"
       id="ellipse9-1"
       cx="839.97235"
       cy="122.15876"
       rx="30.196911"
       ry="28.476835" />
    <ellipse
       style="fill:#ffffff;stroke-width:0.224167"
       id="ellipse10-9"
       cx="838.28528"
       cy="124.6171"
       rx="25.036678"
       ry="24.654442" />
    <ellipse
       style="fill:#000000;stroke-width:0.133639"
       id="ellipse11-3"
       cx="832.26019"
       cy="132.42424"
       rx="14.907334"
       ry="14.716218" />
    <ellipse
       style="fill:#ffffff;stroke-width:0.0377975"
       id="ellipse12-2"
       cx="744.48163"
       cy="314.73901"
       rx="3.7811711"
       ry="4.64118"
       transform="matrix(0.97645606,-0.21571639,0.30908035,0.95103593,0,0)" />
    <rect
       style="fill:#1a1a1a;fill-opacity:1;stroke:#000000;stroke-width:0.285233"
       id="rect153"
       width="524.90979"
       height="173.70354"
       x="1093.6216"
       y="-442.85132"
       ry="53.527233"
       inkscape:export-filename="Fizz Up\Assets\Sprites\Sprites\Logo.png"
       inkscape:export-xdpi="96"
       inkscape:export-ydpi="96" />
    <ellipse
       style="fill:#ffffff;stroke-width:0.0350866"
       id="ellipse13-9"
       cx="798.62317"
       cy="107.96093"
       rx="3.4401529"
       ry="4.3957548" />
    <ellipse
       style="fill:#c83737;stroke-width:0.306923"
       id="ellipse15-1"
       cx="755.21362"
       cy="176.25755"
       rx="11.07136"
       ry="22.220236" />
    <rect
       style="fill:#000000;stroke-width:0.264583"
       id="rect13-2"
       width="47.397682"
       height="4.9691119"
       x="592.49371"
       y="460.34555"
       ry="2.484556"
       transform="rotate(-30)" />
    <rect
       style="fill:#000000;stroke-width:0.264583"
       id="rect14-2"
       width="47.397682"
       height="4.9691119"
       x="758.31256"
       y="-350.88028"
       ry="2.484556"
       transform="rotate(30)" />
    <ellipse
       style="fill:#4d4d4d;stroke-width:0.337843"
       id="path14-7"
       cx="836.44818"
       cy="-55.57663"
       rx="50.082535"
       ry="25.754272"
       transform="matrix(0.95295788,0.30310274,-0.22018967,0.97545708,0,0)" />
    <ellipse
       style="fill:#000000;stroke-width:0.316292"
       id="path14-2-3"
       cx="835.43213"
       cy="-52.770855"
       rx="47.087082"
       ry="24.009312"
       transform="matrix(0.95381437,0.30039665,-0.22226553,0.97498617,0,0)" />
    <ellipse
       style="fill:#c83737;stroke-width:0.306923"
       id="ellipse16-3"
       cx="862.78668"
       cy="178.96039"
       rx="11.07136"
       ry="22.220236" />
    <ellipse
       style="fill:#ffffff;stroke:#000000;stroke-width:0.217861"
       id="path1"
       cx="726.6391"
       cy="-143.65401"
       rx="25.060249"
       ry="3.8459628"
       transform="rotate(15)" />
    <path
       style="fill:#ffffff;stroke:#000000;stroke-width:0.217078"
       id="ellipse1"
       transform="matrix(0.78543155,0.61894852,-0.78543155,0.61894852,0,0)"
       sodipodi:type="arc"
       sodipodi:cx="468.45642"
       sodipodi:cy="-446.22409"
       sodipodi:rx="24.970261"
       sodipodi:ry="3.8321524"
       sodipodi:start="0"
       sodipodi:end="4.6661796"
       sodipodi:arc-type="slice"
       d="m 493.42668,-446.22409 a 24.970261,3.8321524 0 0 1 -24.58565,3.8317 24.970261,3.8321524 0 0 1 -25.34302,-3.71366 24.970261,3.8321524 0 0 1 23.80496,-3.9461 l 1.15345,3.82806 z" />
    <path
       style="fill:#ffffff;stroke:#000000;stroke-width:0.217078"
       id="path2"
       transform="matrix(0.80114301,-0.59847296,0.39457372,0.91886429,0,0)"
       sodipodi:type="arc"
       sodipodi:cx="810.65808"
       sodipodi:cy="582.91626"
       sodipodi:rx="24.970261"
       sodipodi:ry="3.8321524"
       sodipodi:start="0"
       sodipodi:end="4.6661796"
       sodipodi:arc-type="slice"
       d="m 835.62834,582.91626 a 24.970261,3.8321524 0 0 1 -24.58565,3.8317 24.970261,3.8321524 0 0 1 -25.34302,-3.71366 24.970261,3.8321524 0 0 1 23.80496,-3.9461 l 1.15345,3.82806 z" />
    <ellipse
       style="fill:#ffffff;stroke:#000000;stroke-width:0.261047"
       id="ellipse2"
       cx="303.28973"
       cy="708.47345"
       rx="27.747438"
       ry="4.9870758"
       transform="matrix(0.62395954,-0.78145665,0.9228129,0.38524842,0,0)" />
    <ellipse
       style="fill:#ffffff;stroke:#000000;stroke-width:0.206186"
       id="ellipse3"
       cx="532.62939"
       cy="555.23798"
       rx="21.923723"
       ry="3.9376299"
       transform="matrix(0.8141932,-0.58059404,0.80130321,0.59825845,0,0)" />
    <ellipse
       style="fill:#ffffff;stroke:#000000;stroke-width:0.206186"
       id="ellipse4"
       cx="-742.28589"
       cy="490.29962"
       rx="21.923723"
       ry="3.9376299"
       transform="matrix(-0.77153949,-0.63618143,0.37048076,-0.92884014,0,0)" />
    <ellipse
       style="fill:#ffffff;stroke:#000000;stroke-width:0.137797"
       id="ellipse5"
       cx="-704.63611"
       cy="352.99832"
       rx="15.90676"
       ry="2.4239869"
       transform="matrix(-0.86175611,-0.50732279,0.48771251,-0.8730043,0,0)" />
    <ellipse
       style="fill:#ffffff;stroke:#000000;stroke-width:0.137797"
       id="ellipse6"
       cx="-585.93176"
       cy="-597.55634"
       rx="15.90676"
       ry="2.4239869"
       transform="matrix(-0.71307508,0.70108767,-0.71702812,-0.69704424,0,0)" />
    <rect
       style="fill:#0000ff;fill-opacity:1;stroke:#000000;stroke-width:0.279787"
       id="rect148"
       width="521.09283"
       height="168.35764"
       x="1095.1478"
       y="-440.56058"
       ry="51.879875" />
    <rect
       style="fill:#000000;stroke-width:0.141617"
       id="rect3-55"
       width="75.722153"
       height="105.85181"
       x="1107.0022"
       y="-408.45749"
       ry="0.60384154"
       inkscape:export-filename="Fizz Up\Assets\Sprites\Sprites\CanFR.png"
       inkscape:export-xdpi="96"
       inkscape:export-ydpi="96" />
    <rect
       style="fill:#000000;stroke-width:0.149548"
       id="rect5-0"
       width="15.128084"
       height="15.42136"
       x="-1223.8689"
       y="-209.1394"
       ry="0.6714642"
       transform="matrix(-0.87773541,0.47914565,-0.51973324,-0.8543286,0,0)" />
    <rect
       style="fill:#000000;stroke-width:0.148995"
       id="rect5-9-09"
       width="15.045218"
       height="15.391795"
       x="737.13226"
       y="891.35529"
       ry="0.67017692"
       transform="matrix(0.87628964,0.48178467,0.51702616,-0.85596959,0,0)" />
    <rect
       style="fill:#000000;stroke-width:0.134635"
       id="rect6-8"
       width="60.236603"
       height="13.701778"
       x="1114.7344"
       y="-420.76468"
       ry="0.57419008" />
    <rect
       style="fill:#000000;stroke-width:0.156311"
       id="rect7-0"
       width="75.762512"
       height="14.703042"
       x="1106.9507"
       y="-309.39117"
       ry="5.1746283" />
    <rect
       style="mix-blend-mode:normal;fill:#ffa07a;fill-opacity:1;stroke-width:0.137403"
       id="rect3-0-0"
       width="72.939415"
       height="103.44678"
       x="1108.4692"
       y="-407.4223"
       ry="0.59012187" />
    <rect
       style="mix-blend-mode:normal;fill:#ffa07a;fill-opacity:1;stroke-width:0.145061"
       id="rect5-3-9"
       width="14.621133"
       height="15.012844"
       x="-1223.2687"
       y="-216.81499"
       ry="0.65367699"
       transform="matrix(-0.87479411,0.48449485,-0.51425615,-0.85763665,0,0)" />
    <rect
       style="mix-blend-mode:normal;fill:#ffa07a;fill-opacity:1;stroke-width:0.14453"
       id="rect5-9-0-5"
       width="14.541583"
       height="14.984668"
       x="744.4679"
       y="895.52234"
       ry="0.65245014"
       transform="matrix(0.87332092,0.48714533,0.51155698,-0.85924935,0,0)" />
    <rect
       style="mix-blend-mode:normal;fill:#ffa07a;fill-opacity:1;stroke-width:0.130628"
       id="rect6-1-5"
       width="58.022961"
       height="13.390466"
       x="1115.9174"
       y="-419.44986"
       ry="0.56114411" />
    <rect
       style="mix-blend-mode:normal;fill:#ffa07a;fill-opacity:1;stroke-width:0.15166"
       id="rect7-3-6"
       width="72.978287"
       height="14.36898"
       x="1108.4197"
       y="-310.60681"
       ry="5.0570579" />
    <rect
       style="fill:#000000;stroke-width:0.0918195"
       id="rect8-68"
       width="64.643723"
       height="3.7212942"
       x="1112.1104"
       y="-424.1929"
       ry="1.625374" />
    <rect
       style="fill:#4d4d4d;stroke-width:0.0743967"
       id="rect8-3-2"
       width="62.65675"
       height="2.5205157"
       x="1113.1324"
       y="-423.47498"
       ry="1.1009021" />
    <ellipse
       style="fill:#000000;stroke-width:0.141617"
       id="path9-59"
       cx="1129.5717"
       cy="-386.54959"
       rx="16.523235"
       ry="14.909669" />
    <ellipse
       style="fill:#ffffff;stroke-width:0.119985"
       id="path9-5-14"
       cx="1129.2865"
       cy="-387.23947"
       rx="13.699644"
       ry="12.908371" />
    <ellipse
       style="fill:#000000;stroke-width:0.0715299"
       id="path9-5-3-6"
       cx="1130.1072"
       cy="-386.51141"
       rx="8.1570396"
       ry="7.7049971" />
    <ellipse
       style="fill:#000000;stroke-width:0.141617"
       id="ellipse9-4"
       cx="1161.3633"
       cy="-386.54959"
       rx="16.523235"
       ry="14.909669" />
    <ellipse
       style="fill:#ffffff;stroke-width:0.119985"
       id="ellipse10-3"
       cx="1161.0317"
       cy="-386.81912"
       rx="13.699644"
       ry="12.908371" />
    <ellipse
       style="fill:#000000;stroke-width:0.0715299"
       id="ellipse11-8"
       cx="1161.8759"
       cy="-385.27875"
       rx="8.1570396"
       ry="7.7049971" />
    <ellipse
       style="fill:#ffffff;stroke-width:0.0202122"
       id="ellipse12-6"
       cx="1052.6781"
       cy="-707.10022"
       rx="2.0610414"
       ry="2.4348271"
       transform="matrix(0.95717235,0.28951873,-0.2167882,0.97621866,0,0)" />
    <ellipse
       style="fill:#ffffff;stroke-width:0.01878"
       id="ellipse13-5"
       cx="1130.1598"
       cy="-386.62451"
       rx="1.882393"
       ry="2.3014934" />
    <rect
       style="fill:#000000;stroke-width:0.124964"
       id="rect13-6"
       width="20.434961"
       height="2.5710473"
       x="1094.5945"
       y="-289.87082"
       ry="1.2855237"
       transform="matrix(0.99410882,-0.1083866,-0.08344148,0.99651268,0,0)" />
    <rect
       style="fill:#000000;stroke-width:0.111518"
       id="rect14-6"
       width="19.710657"
       height="2.1227512"
       x="942.90997"
       y="-498.45529"
       ry="1.0613756"
       transform="matrix(0.99902425,0.04416512,-0.42705279,0.90422669,0,0)" />
    <ellipse
       style="fill:#4d4d4d;stroke-width:0.105085"
       id="path14-6"
       cx="1190.6844"
       cy="-371.23111"
       rx="27.378147"
       ry="4.5580573"
       transform="matrix(0.99988998,0.01483342,0.1229891,0.99240802,0,0)" />
    <ellipse
       style="fill:#000000;stroke-width:0.0983516"
       id="path14-2-5"
       cx="1187.7085"
       cy="-369.7338"
       rx="25.743582"
       ry="4.2462292"
       transform="matrix(0.99990311,0.01392005,0.11649522,0.99319125,0,0)" />
    <ellipse
       style="fill:#f2f2f2;fill-opacity:1;stroke:#000000;stroke-width:0.305942"
       id="path148"
       cx="390.56046"
       cy="249.74248"
       rx="1.3309487"
       ry="35.116455" />
    <ellipse
       style="fill:#f2f2f2;fill-opacity:1;stroke:#000000;stroke-width:0.348997"
       id="ellipse148"
       cx="517.59393"
       cy="169.73839"
       rx="1.3094215"
       ry="46.446857" />
    <rect
       style="fill:#000000;stroke-width:0.141617"
       id="rect3-55-7"
       width="75.722153"
       height="105.85181"
       x="1519.0137"
       y="-410.05627"
       ry="0.60384154"
       inkscape:export-filename="Fizz Up\Assets\Sprites\Sprites\CanFR.png"
       inkscape:export-xdpi="96"
       inkscape:export-ydpi="96" />
    <rect
       style="fill:#000000;stroke-width:0.149548"
       id="rect5-0-8"
       width="15.128084"
       height="15.42136"
       x="-1577.0807"
       y="-405.36496"
       ry="0.6714642"
       transform="matrix(-0.87773541,0.47914565,-0.51973324,-0.8543286,0,0)" />
    <rect
       style="fill:#000000;stroke-width:0.148995"
       id="rect5-9-09-8"
       width="15.045218"
       height="15.391795"
       x="1089.2662"
       y="1091.4226"
       ry="0.67017692"
       transform="matrix(0.87628964,0.48178467,0.51702616,-0.85596959,0,0)" />
    <rect
       style="fill:#000000;stroke-width:0.134635"
       id="rect6-8-8"
       width="60.236603"
       height="13.701778"
       x="1526.7458"
       y="-422.36346"
       ry="0.57419008" />
    <rect
       style="fill:#000000;stroke-width:0.156311"
       id="rect7-0-4"
       width="75.762512"
       height="14.703042"
       x="1518.9622"
       y="-310.98996"
       ry="5.1746283" />
    <rect
       style="mix-blend-mode:normal;fill:#ffa07a;fill-opacity:1;stroke-width:0.137403"
       id="rect3-0-0-9"
       width="72.939415"
       height="103.44678"
       x="1520.4807"
       y="-409.02109"
       ry="0.59012187" />
    <rect
       style="mix-blend-mode:normal;fill:#ffa07a;fill-opacity:1;stroke-width:0.145061"
       id="rect5-3-9-3"
       width="14.621133"
       height="15.012844"
       x="-1577.6561"
       y="-415.15082"
       ry="0.65367699"
       transform="matrix(-0.87479411,0.48449485,-0.51425615,-0.85763665,0,0)" />
    <rect
       style="mix-blend-mode:normal;fill:#ffa07a;fill-opacity:1;stroke-width:0.14453"
       id="rect5-9-0-5-6"
       width="14.541583"
       height="14.984668"
       x="1097.8108"
       y="1097.7083"
       ry="0.65245014"
       transform="matrix(0.87332092,0.48714533,0.51155698,-0.85924935,0,0)" />
    <rect
       style="mix-blend-mode:normal;fill:#ffa07a;fill-opacity:1;stroke-width:0.130628"
       id="rect6-1-5-6"
       width="58.022961"
       height="13.390466"
       x="1527.9288"
       y="-421.04865"
       ry="0.56114411" />
    <rect
       style="mix-blend-mode:normal;fill:#ffa07a;fill-opacity:1;stroke-width:0.15166"
       id="rect7-3-6-8"
       width="72.978287"
       height="14.36898"
       x="1520.4312"
       y="-312.2056"
       ry="5.0570579" />
    <rect
       style="fill:#000000;stroke-width:0.0918195"
       id="rect8-68-4"
       width="64.643723"
       height="3.7212942"
       x="1524.1218"
       y="-425.79169"
       ry="1.625374" />
    <rect
       style="fill:#4d4d4d;stroke-width:0.0743967"
       id="rect8-3-2-9"
       width="62.65675"
       height="2.5205157"
       x="1525.1439"
       y="-425.07376"
       ry="1.1009021" />
    <ellipse
       style="fill:#000000;stroke-width:0.141617"
       id="path9-59-5"
       cx="1541.5831"
       cy="-388.14838"
       rx="16.523235"
       ry="14.909669" />
    <ellipse
       style="fill:#ffffff;stroke-width:0.119985"
       id="path9-5-14-1"
       cx="1541.298"
       cy="-388.83826"
       rx="13.699644"
       ry="12.908371" />
    <ellipse
       style="fill:#000000;stroke-width:0.0715299"
       id="path9-5-3-6-6"
       cx="1535.4707"
       cy="-388.49243"
       rx="8.1570396"
       ry="7.7049971" />
    <ellipse
       style="fill:#000000;stroke-width:0.141617"
       id="ellipse9-4-3"
       cx="1573.3748"
       cy="-388.14838"
       rx="16.523235"
       ry="14.909669" />
    <ellipse
       style="fill:#ffffff;stroke-width:0.119985"
       id="ellipse10-3-3"
       cx="1573.0432"
       cy="-388.41791"
       rx="13.699644"
       ry="12.908371" />
    <ellipse
       style="fill:#000000;stroke-width:0.0715299"
       id="ellipse11-8-5"
       cx="1571.4983"
       cy="-388.02426"
       rx="8.1570396"
       ry="7.7049971" />
    <ellipse
       style="fill:#ffffff;stroke-width:0.0202122"
       id="ellipse12-6-9"
       cx="1448.2611"
       cy="-826.93762"
       rx="2.0610414"
       ry="2.4348271"
       transform="matrix(0.95717235,0.28951873,-0.2167882,0.97621866,0,0)" />
    <ellipse
       style="fill:#ffffff;stroke-width:0.01878"
       id="ellipse13-5-5"
       cx="1529.8853"
       cy="-388.03217"
       rx="1.882393"
       ry="2.3014934" />
    <rect
       style="fill:#000000;stroke-width:0.124964"
       id="rect13-6-7"
       width="20.434961"
       height="2.5710473"
       x="1512.7302"
       y="-245.99631"
       ry="1.2855237"
       transform="matrix(0.99410882,-0.1083866,-0.08344148,0.99651268,0,0)" />
    <rect
       style="fill:#000000;stroke-width:0.111518"
       id="rect14-6-1"
       width="19.710657"
       height="2.1227512"
       x="1346.1488"
       y="-519.91876"
       ry="1.0613756"
       transform="matrix(0.99902425,0.04416512,-0.42705279,0.90422669,0,0)" />
    <ellipse
       style="fill:#4d4d4d;stroke-width:0.105085"
       id="path14-6-9"
       cx="1603.6987"
       cy="-379.01541"
       rx="27.378147"
       ry="4.5580573"
       transform="matrix(0.99988998,0.01483342,0.1229891,0.99240802,0,0)" />
    <ellipse
       style="fill:#000000;stroke-width:0.0983516"
       id="path14-2-5-3"
       cx="1600.6217"
       cy="-377.13071"
       rx="25.743582"
       ry="4.2462292"
       transform="matrix(0.99990311,0.01392005,0.11649522,0.99319125,0,0)" />
    <text
       xml:space="preserve"
       transform="matrix(0.32177171,0,0,0.6123559,-343.70606,-70.717266)"
       id="text150"
       style="font-style:normal;font-variant:normal;font-weight:normal;font-stretch:normal;font-size:133.333px;line-height:2.9;font-family:'Goudy Stout';-inkscape-font-specification:'Goudy Stout, Normal';font-variant-ligatures:normal;font-variant-caps:normal;font-variant-numeric:normal;font-variant-east-asian:normal;text-align:center;white-space:pre;shape-inside:url(#rect151);fill:#1a1a1a;fill-opacity:1;stroke:#000000;stroke-width:1.00157"><tspan
         x="4753.7939"
         y="-419.35153"
         id="tspan1">FIZZ UP</tspan></text>
    <text
       xml:space="preserve"
       transform="matrix(0.32177171,0,0,0.6123559,-345.9995,-70.717266)"
       id="text152"
       style="font-style:normal;font-variant:normal;font-weight:normal;font-stretch:normal;font-size:133.333px;line-height:2.9;font-family:'Goudy Stout';-inkscape-font-specification:'Goudy Stout, Normal';font-variant-ligatures:normal;font-variant-caps:normal;font-variant-numeric:normal;font-variant-east-asian:normal;text-align:center;white-space:pre;shape-inside:url(#rect152);fill:#800000;fill-opacity:1;stroke:#000000;stroke-width:1.00157"><tspan
         x="4753.7939"
         y="-419.35153"
         id="tspan2">FIZZ UP</tspan></text>
  </g>
</svg>
